# xmcd
#
# Track frame offsets: 
#        150
#        13605
#        20405
#        50344
#        90248
#        123012
#        150708
#        223586
#
# Disc length: 3298 seconds
#
# Revision: 1
# Processed by: cddbd v1.5.1PL0 Copyright (c) Steve Scherf et al.
# Submitted via: ExactAudioCopy v0.95a4
#
DISCID=550ce008
DTITLE=MilesDavis - OnTheCorner
DYEAR=1972
DGENRE=Jazz
TTITLE0=OnTheCorner
TTITLE1=NewYorkGirl
TTITLE2=Thinkin'OneThingAndDoin' Another
TTITLE3=VoteForMiles
TTITLE4=Mr.FreedomX
TTITLE5=OneAndOne
TTITLE6=HelenButte
TTITLE7=BlackSatin
EXTD=
EXTT0=
EXTT1=
EXTT2=
EXTT3=
EXTT4=
EXTT5=
EXTT6=
EXTT7=
PLAYORDER=
